<?xml version="1.0" encoding="UTF-8"?>
<!DOCTYPE svg PUBLIC "-//W3C//DTD SVG 1.1//EN" "http://www.w3.org/Graphics/SVG/1.1/DTD/svg11.dtd">
<!-- Creator: CorelDRAW -->
<svg xmlns="http://www.w3.org/2000/svg" xml:space="preserve" width="48px" height="48px" version="1.1" shape-rendering="geometricPrecision" text-rendering="geometricPrecision" image-rendering="optimizeQuality" fill-rule="evenodd" clip-rule="evenodd"
viewBox="0 0 4800 4800"
 xmlns:xlink="http://www.w3.org/1999/xlink">
 <g id="Layer_x0020_1">
  <metadata id="CorelCorpID_0Corel-Layer"/>
  <g>
   <path fill="black" d="M3300 3002l450 600 450 -600 -298 0c-34,-162 -119,-304 -237,-410 -135,-120 -313,-192 -507,-192 -208,0 -397,84 -535,219 -138,137 -223,325 -223,532 0,207 85,395 223,531 138,136 327,220 535,220l0 -300c-127,0 -242,-51 -325,-133 -82,-81 -133,-194 -133,-318 0,-125 51,-237 133,-318 83,-82 198,-133 325,-133 118,0 227,44 308,116 56,50 100,114 126,186l-292 0z"/>
  </g>
  <path fill="black" fill-rule="nonzero" d="M592 1745c-152,-55 -283,-149 -383,-269 -131,-157 -209,-359 -209,-576 0,-248 101,-473 264,-636l0 0 0 0c163,-163 388,-264 636,-264 217,0 420,78 577,210 120,100 213,231 268,382 39,-4 79,-6 119,-6 310,0 597,112 821,299 186,156 328,366 402,608 18,-1 37,-1 55,-1 911,0 1650,739 1650,1650 0,911 -739,1650 -1650,1650 -911,0 -1650,-739 -1650,-1650 0,-19 0,-37 1,-56 -243,-73 -453,-216 -609,-403 -187,-224 -298,-510 -298,-819 0,-40 2,-80 6,-119zm2192 -214c-60,-165 -161,-307 -291,-416 -171,-144 -392,-229 -629,-229 -270,0 -514,110 -691,287 -177,177 -287,421 -287,691 0,237 85,456 227,627 110,131 253,233 418,293 138,-624 629,-1115 1253,-1253zm-597 2566c245,244 582,395 955,395 373,0 710,-151 955,-395 244,-245 395,-582 395,-955 0,-373 -151,-710 -395,-955 -245,-244 -582,-395 -955,-395 -373,0 -710,151 -955,395 -244,245 -395,582 -395,955 0,373 151,710 395,955zm-739 -3441c-38,-85 -94,-158 -163,-216 -105,-88 -240,-140 -385,-140 -166,0 -316,67 -424,175l-1 1c-108,108 -175,258 -175,424 0,145 52,280 139,384 58,70 132,126 217,164 64,-185 169,-352 305,-487 135,-136 302,-241 487,-305z"/>
  <text x="-12350" y="8240"  fill="black" font-weight="normal" font-size="1066.66px" font-family="Humanst521 BT">Apps\Public\Res\VGCore\AppFunctionalCore\RCBin\drwbtn_123.ico</text>
 </g>
</svg>
