<?xml version="1.0" encoding="UTF-8"?>
<!DOCTYPE svg PUBLIC "-//W3C//DTD SVG 1.1//EN" "http://www.w3.org/Graphics/SVG/1.1/DTD/svg11.dtd">
<!-- Creator: CorelDRAW -->
<svg xmlns="http://www.w3.org/2000/svg" xml:space="preserve" width="48px" height="48px" version="1.1" shape-rendering="geometricPrecision" text-rendering="geometricPrecision" image-rendering="optimizeQuality" fill-rule="evenodd" clip-rule="evenodd"
viewBox="0 0 4800 4800"
 xmlns:xlink="http://www.w3.org/1999/xlink">
 <g id="Layer_x0020_1">
  <metadata id="CorelCorpID_0Corel-Layer"/>
  <text x="-12472" y="7040"  fill="black" font-weight="normal" font-size="1066.66px" font-family="Humanst521 BT">Apps\Public\Res\VGCore\AppFunctionalCore\RCBin\drwbtn_158.ico</text>
  <path fill="black" d="M0 1200l3600 0 0 3600 -3600 0 0 -3600zm3300 300l-3000 0 0 3000 3000 0 0 -3000z"/>
  <path fill="black" d="M900 2100l1800 0 0 1800 -1800 0 0 -1800zm1500 300l-1200 0 0 1200 1200 0 0 -1200z"/>
  <g>
   <path fill="black" d="M3900 900l300 0c0,-166 -67,-316 -175,-424l-1 0c-108,-109 -258,-176 -424,-176l0 -300c497,0 900,403 900,900l300 0 -450 600 -450 -600z"/>
  </g>
 </g>
</svg>
