<?xml version="1.0" encoding="UTF-8"?>
<!DOCTYPE svg PUBLIC "-//W3C//DTD SVG 1.1//EN" "http://www.w3.org/Graphics/SVG/1.1/DTD/svg11.dtd">
<!-- Creator: CorelDRAW -->
<svg xmlns="http://www.w3.org/2000/svg" xml:space="preserve" width="48px" height="48px" version="1.1" shape-rendering="geometricPrecision" text-rendering="geometricPrecision" image-rendering="optimizeQuality" fill-rule="evenodd" clip-rule="evenodd"
viewBox="0 0 4800 4800"
 xmlns:xlink="http://www.w3.org/1999/xlink">
 <g id="Layer_x0020_1">
  <metadata id="CorelCorpID_0Corel-Layer"/>
  <text x="-6715" y="6741"  fill="black" font-weight="normal" font-size="1066.66px" font-family="Humanst521 BT">Engines\CrlFX\Main\RCBin\FxBtn_147.ico</text>
  <path fill="black" fill-rule="nonzero" d="M1099 3996c199,250 445,448 718,583 274,135 575,208 883,208 582,0 1108,-253 1488,-660 378,-405 612,-963 612,-1579 0,-615 -234,-1174 -612,-1578 -380,-408 -906,-660 -1488,-660 -555,0 -1062,230 -1439,609 -373,375 -619,896 -656,1481l-595 0 759 900 741 -900 -605 0c36,-503 248,-949 568,-1270 322,-323 755,-520 1227,-520 495,0 944,216 1269,564 328,351 531,837 531,1374 0,538 -203,1024 -531,1375 -325,348 -774,564 -1269,564 -263,0 -518,-62 -751,-177 -233,-115 -444,-285 -616,-500l-234 186z"/>
 </g>
</svg>
